<?xml version="1.0" encoding="UTF-8"?>
<!--Generator: Apple Native CoreSVG 175.5-->
<!DOCTYPE svg
PUBLIC "-//W3C//DTD SVG 1.1//EN"
       "http://www.w3.org/Graphics/SVG/1.1/DTD/svg11.dtd">
<svg version="1.1" xmlns="http://www.w3.org/2000/svg" xmlns:xlink="http://www.w3.org/1999/xlink" width="16.8384" height="15.6049">
 <g>
  <rect height="15.6049" opacity="0" width="16.8384" x="0" y="0"/>
  <path d="M7.4707 15.2695C8.34229 15.2695 9.21387 15.101 10.0342 14.8007C10.144 14.7641 10.2466 14.7202 10.3418 14.6762C10.1074 14.4345 9.87305 14.1342 9.71924 13.8413C9.63135 13.8852 9.54346 13.9145 9.44824 13.9438C8.17383 11.9809 7.56592 9.79829 7.56592 7.64497C7.56592 5.46968 8.1665 3.38228 9.30176 1.60249C11.5576 2.27632 13.3154 4.16597 13.7988 6.48042C14.1504 6.48775 14.458 6.56831 14.8535 6.7148C14.3262 3.13326 11.1768 0.32808 7.46338 0.32808C3.37646 0.32808 0 3.71187 0 7.79878C0 11.8784 3.38379 15.2695 7.4707 15.2695ZM7.4707 14.2734C3.93311 14.2734 0.996094 11.3364 0.996094 7.79878C0.996094 4.26119 3.92578 1.32417 7.46338 1.32417C7.771 1.32417 8.08594 1.34615 8.39355 1.39009C7.27295 3.27974 6.67969 5.43306 6.67969 7.64497C6.67969 9.98872 7.33154 12.2299 8.54736 14.1782C8.1958 14.2441 7.84424 14.2734 7.4707 14.2734ZM1.1792 4.69331C2.98828 6.61958 5.53711 7.73286 8.24707 7.72554C10.3784 7.71822 12.4146 7.00777 14.0625 5.70406L13.6523 4.88374C12.1362 6.14351 10.2466 6.83199 8.24707 6.83931C5.64697 6.84663 3.22998 5.7187 1.58936 3.78511ZM4.021 13.9072L5.07568 14.1489C4.57764 12.9697 4.32129 11.7246 4.29932 10.4428C4.09424 6.80269 5.6543 3.33101 8.45215 1.03853L7.52197 0.672318C4.74609 3.13326 3.21533 6.7148 3.41309 10.4575C3.42773 11.6293 3.63281 12.7866 4.021 13.9072ZM8.05664 10.9116C5.36133 10.8457 2.70264 9.81294 0.60791 7.87935L0.395508 8.87544C2.60742 10.7651 5.37598 11.7539 8.15918 11.8051ZM10.21 7.02242C9.90967 6.18745 9.73389 5.28658 9.72656 4.36372C9.71191 3.33833 9.8877 2.32027 10.2539 1.38277L9.4043 1.14107C9.01611 2.16646 8.82568 3.25044 8.84033 4.37105C8.84766 5.38179 9.03076 6.36324 9.36768 7.29341ZM4.28467 7.63765C4.91455 7.63765 5.42725 7.11763 5.42725 6.48775C5.42725 5.85786 4.91455 5.34517 4.28467 5.34517C3.64746 5.34517 3.13477 5.85786 3.13477 6.48775C3.13477 7.11763 3.64746 7.63765 4.28467 7.63765ZM9.78516 7.98189C10.4004 7.98189 10.9058 7.47652 10.9058 6.85396C10.9058 6.23872 10.4004 5.72603 9.78516 5.72603C9.15527 5.72603 8.6499 6.23872 8.6499 6.85396C8.6499 7.47652 9.15527 7.98189 9.78516 7.98189ZM7.67578 12.4423C8.30566 12.4423 8.81104 11.9296 8.81104 11.2924C8.81104 10.6626 8.30566 10.1572 7.67578 10.1572C7.03857 10.1572 6.52588 10.6626 6.52588 11.2924C6.52588 11.9296 7.03857 12.4423 7.67578 12.4423ZM9.99023 12.164C9.99023 13.6801 10.8838 14.2368 13.0518 15.5112C13.2935 15.6503 13.5938 15.621 13.7842 15.5112C15.9521 14.2368 16.8384 13.6801 16.8384 12.164L16.8384 9.30025C16.8384 8.84615 16.6699 8.53853 16.2012 8.34078C15.7251 8.14302 14.2603 7.64497 13.8721 7.49849C13.5791 7.37398 13.2861 7.3813 13.0298 7.46919C12.5684 7.63033 11.1108 8.14302 10.6348 8.34078C10.166 8.53853 9.99023 8.84615 9.99023 9.30025ZM11.0669 12.0249L11.0669 9.64449C11.0669 9.42476 11.1328 9.3149 11.3525 9.23433C11.8726 9.0439 12.6489 8.75093 13.1616 8.56783C13.2568 8.5312 13.3301 8.51656 13.418 8.51656L13.418 14.3979C13.3447 14.3979 13.2715 14.3759 13.1982 14.3393C11.521 13.3286 11.0669 13.0795 11.0669 12.0249Z" fill="#000000" fill-opacity="0.85"/>
 </g>
</svg>
