<?xml version="1.0" encoding="UTF-8" standalone="no"?>
<!-- Created with Inkscape (http://www.inkscape.org/) -->

<svg
   width="512"
   height="512"
   viewBox="0 0 135.46667 135.46667"
   version="1.1"
   id="svg1"
   inkscape:export-filename="logo.png"
   inkscape:export-xdpi="96"
   inkscape:export-ydpi="96"
   inkscape:version="1.3 (0e150ed, 2023-07-21)"
   sodipodi:docname="drawing.svg"
   xmlns:inkscape="http://www.inkscape.org/namespaces/inkscape"
   xmlns:sodipodi="http://sodipodi.sourceforge.net/DTD/sodipodi-0.dtd"
   xmlns="http://www.w3.org/2000/svg"
   xmlns:svg="http://www.w3.org/2000/svg">
  <sodipodi:namedview
     id="namedview1"
     pagecolor="#000000"
     bordercolor="#000000"
     borderopacity="0.25"
     inkscape:showpageshadow="2"
     inkscape:pageopacity="0.0"
     inkscape:pagecheckerboard="0"
     inkscape:deskcolor="#d1d1d1"
     inkscape:document-units="px"
     showguides="true"
     showgrid="true"
     inkscape:export-bgcolor="#000000ff"
     inkscape:zoom="0.33738572"
     inkscape:cx="349.74806"
     inkscape:cy="220.81551"
     inkscape:window-width="1728"
     inkscape:window-height="1056"
     inkscape:window-x="0"
     inkscape:window-y="33"
     inkscape:window-maximized="1"
     inkscape:current-layer="layer1">
    <inkscape:grid
       id="grid3"
       units="px"
       originx="0"
       originy="0"
       spacingx="0.26458333"
       spacingy="0.26458333"
       empcolor="#0099e5"
       empopacity="0.30196078"
       color="#0099e5"
       opacity="0.14901961"
       empspacing="5"
       dotted="false"
       gridanglex="30"
       gridanglez="30"
       visible="true" />
  </sodipodi:namedview>
  <defs
     id="defs1">
    <inkscape:path-effect
       effect="powerclip"
       id="path-effect3"
       is_visible="true"
       lpeversion="1"
       inverse="true"
       flatten="false"
       hide_clip="false"
       message="Use fill-rule evenodd on &lt;b&gt;fill and stroke&lt;/b&gt; dialog if no flatten result after convert clip to paths." />
    <clipPath
       clipPathUnits="userSpaceOnUse"
       id="clipPath3">
      <path
         id="lpe_path-effect3"
         style="fill:#000000;stroke-width:2.64583"
         class="powerclip"
         d="M 18.729218,20.297653 H 299.66254 V 301.23097 H 18.729218 Z M 265.02922,160.76431 A 105.83334,105.83334 0 0 0 159.19588,54.930969 105.83334,105.83334 0 0 0 53.362534,160.76431 105.83334,105.83334 0 0 0 159.19588,266.59766 105.83334,105.83334 0 0 0 265.02922,160.76431 Z" />
    </clipPath>
    <clipPath
       clipPathUnits="userSpaceOnUse"
       id="clipPath3-3">
      <path
         id="lpe_path-effect3-7"
         style="fill:#000000;stroke-width:2.64583"
         class="powerclip"
         d="M 18.729218,20.297653 H 299.66254 V 301.23097 H 18.729218 Z M 265.02922,160.76431 A 105.83334,105.83334 0 0 0 159.19588,54.930969 105.83334,105.83334 0 0 0 53.362534,160.76431 105.83334,105.83334 0 0 0 159.19588,266.59766 105.83334,105.83334 0 0 0 265.02922,160.76431 Z" />
    </clipPath>
  </defs>
  <g
     inkscape:label="Layer 1"
     inkscape:groupmode="layer"
     id="layer1"
     style="display:inline">
    <path
       id="path1"
       transform="matrix(0.19531251,0,0,0.19531252,36.640388,36.334052)"
       clip-path="url(#clipPath3)"
       d="M 294.66254,160.76431 A 135.46666,135.46666 0 0 1 159.19588,296.23097 135.46666,135.46666 0 0 1 23.729218,160.76431 135.46666,135.46666 0 0 1 159.19588,25.297653 135.46666,135.46666 0 0 1 294.66254,160.76431 Z"
       style="fill:#ffffff;stroke-width:2.64583"
       inkscape:export-filename="gost-tile.svg"
       inkscape:export-xdpi="96"
       inkscape:export-ydpi="96" />
  </g>
</svg>
